<?xml version="1.0" encoding="UTF-8" standalone="no"?>
<!-- Generator: Adobe Illustrator 25.3.0, SVG Export Plug-In . SVG Version: 6.00 Build 0)  -->

<svg
   version="1.1"
   id="Layer_1"
   x="0px"
   y="0px"
   width="415.39999"
   height="415.39999"
   viewBox="0 0 415.4 415.39998"
   xml:space="preserve"
   sodipodi:docname="09318df9c6cf5f9e07bcc19f8a078ce3.svg"
   xmlns:inkscape="http://www.inkscape.org/namespaces/inkscape"
   xmlns:sodipodi="http://sodipodi.sourceforge.net/DTD/sodipodi-0.dtd"
   xmlns="http://www.w3.org/2000/svg"
   xmlns:svg="http://www.w3.org/2000/svg"><defs
   id="defs13" /><sodipodi:namedview
   id="namedview11"
   pagecolor="#ffffff"
   bordercolor="#666666"
   borderopacity="1.0"
   inkscape:pageshadow="2"
   inkscape:pageopacity="0.0"
   inkscape:pagecheckerboard="0" />
<style
   type="text/css"
   id="style2">
	.st0{fill:#FFFFFF;}
</style>
<path
   d="M 400,415.4 H 15.4 C 6.9,415.4 0,408.5 0,400 V 15.4 C 0,6.9 6.9,0 15.4,0 H 400 c 8.5,0 15.4,6.9 15.4,15.4 V 400 c 0,8.5 -6.9,15.4 -15.4,15.4 z"
   id="path4" />
<g
   id="g8"
   transform="translate(-101.7,-105.2)">
	<path
   class="st0"
   d="m 239.5,310.9 109.1,120 21.9,43.6 -47.2,29.1 -18.2,-40 -136.3,-158.1 121.7,-85.4 32.7,36.3 z m 210.5,-27 -106.8,-125.5 -12.5,-36.2 -51.3,15.6 20.1,40.6 78.3,93 -70.8,51.9 37.9,42.1 z"
   id="path6" />
</g>
</svg>
