<?xml version="1.0" encoding="UTF-8" standalone="no"?>
<!-- Generator: Adobe Illustrator 25.3.0, SVG Export Plug-In . SVG Version: 6.00 Build 0)  -->

<svg
   version="1.1"
   id="Layer_1"
   x="0px"
   y="0px"
   width="264"
   height="352.89999"
   viewBox="0 0 264.00001 352.89998"
   xml:space="preserve"
   sodipodi:docname="6fc9767aa5933cd8346671f0900559bf.svg"
   xmlns:inkscape="http://www.inkscape.org/namespaces/inkscape"
   xmlns:sodipodi="http://sodipodi.sourceforge.net/DTD/sodipodi-0.dtd"
   xmlns="http://www.w3.org/2000/svg"
   xmlns:svg="http://www.w3.org/2000/svg"><defs
   id="defs21" /><sodipodi:namedview
   id="namedview19"
   pagecolor="#ffffff"
   bordercolor="#666666"
   borderopacity="1.0"
   inkscape:showpageshadow="2"
   inkscape:pageopacity="0.0"
   inkscape:pagecheckerboard="0"
   inkscape:deskcolor="#d1d1d1" />
<style
   type="text/css"
   id="style2">
	.st0{fill:#FFFFFF;}
</style>
<g
   id="g6"
   transform="translate(-168.1,-211.9)">
	<path
   class="st0"
   d="m 252.3,329.8 68.2,75.1 13.7,27.3 -29.5,18.2 -11.4,-25 -85.3,-98.9 76.1,-53.4 20.4,22.7 z m 131.6,-16.8 -66.8,-78.5 -7.8,-22.6 -32.1,9.7 12.6,25.4 49,58.2 -44.3,32.5 23.7,26.4 z"
   id="path4" />
</g>
<path
   class="st0"
   d="m 9,268.2 29.4,18.5 v 8.5 l -17.8,16.1 17.8,13.1 v 10.2 l -30.9,18 -3.7,-7.3 V 280.7 L 0,273.3 Z m 23.4,23 -19.8,-11.9 -0.3,28.3 z m 0,38.2 -19.8,-14 V 340 l 3.7,-0.6 z"
   id="path8" />
<path
   class="st0"
   d="m 68.5,336.9 2.6,-4.7 14.1,7.9 -1.8,-53.3 -25.5,19 0.1,21.7 h -8.7 v -25.7 l 34.8,-24.6 5.9,6.9 2.6,58.6 -5.3,6"
   id="path10" />
<path
   class="st0"
   d="m 104.6,334.4 v -53.7 l -3.7,-7.4 8.6,-5.2 3.9,7.5 v 43.7 l 33.6,-35.5 -0.1,56.3 3.9,7.6 -8.9,5.2 -3.7,-7.4 v -46 z"
   id="path12" />
<path
   class="st0"
   d="m 199.3,351.1 -41.6,-40.3 42.5,-35.6 5.5,7.6 -34.4,28.8 33.8,32.6 c 0.1,0.1 -0.8,1.3 -2.8,3.5 -0.6,0.8 -1.7,1.9 -3,3.4 z"
   id="path14" />
<path
   class="st0"
   d="m 224.9,275.7 v 8.9 l 26.5,16.1 v -19.9 l -3.8,-7.4 8.6,-5.2 3.9,7.5 v 64.4 l 3.9,7.5 -8.9,5.2 -3.7,-7.4 v -14.7 l -26.5,-15.2 v 24.6 l 3.9,7.6 -8.9,5.2 -3.8,-7.4 v -64.6 l -3.7,-7.4 8.6,-5.2 z m 26.5,35.3 -26.5,-15.2 v 8.4 l 26.5,16.1 z"
   id="path16" />
</svg>
